<?xml version="1.0" standalone="no"?>
<!DOCTYPE svg PUBLIC "-//W3C//DTD SVG 20010904//EN"
 "http://www.w3.org/TR/2001/REC-SVG-20010904/DTD/svg10.dtd">
<svg version="1.0" xmlns="http://www.w3.org/2000/svg"
 width="327.000000pt" height="327.000000pt" viewBox="0 0 327.000000 327.000000"
 preserveAspectRatio="xMidYMid meet">
<metadata>
Created by potrace 1.14, written by Peter Selinger 2001-2017
</metadata>
<g transform="translate(0.000000,327.000000) scale(0.100000,-0.100000)"
fill="#000000" stroke="none">
<path d="M1324 3251 c-2 -3 -12 -6 -22 -7 -54 -7 -82 -19 -154 -67 -27 -18
-48 -38 -48 -44 0 -7 -4 -13 -9 -13 -10 0 -64 -92 -63 -107 0 -4 -5 -17 -11
-28 -7 -13 -11 -177 -11 -496 l-1 -475 -228 -229 c-125 -126 -227 -233 -227
-237 0 -13 64 -143 72 -146 5 -2 8 -7 8 -12 0 -12 62 -144 70 -150 9 -6 25
-52 22 -62 -1 -5 2 -8 7 -8 7 0 22 -36 20 -49 0 -2 3 -7 8 -10 9 -7 65 -119
69 -138 2 -10 -17 -13 -67 -13 -55 0 -70 -3 -77 -17 -4 -10 -8 -220 -8 -468
l1 -450 1015 0 1015 0 2 455 c0 250 -3 462 -8 470 -4 8 -9 10 -9 4 0 -12 -65
-12 -77 -1 -11 12 -14 37 -13 107 1 36 1 72 1 80 -1 8 -1 44 0 80 0 36 0 72 0
80 -1 8 -1 44 0 80 0 36 0 72 0 80 -1 8 -1 44 0 80 0 36 0 72 0 80 -1 8 -1 44
0 80 0 36 0 72 0 80 -1 8 -1 44 0 80 0 36 0 72 0 80 -1 8 -1 41 -2 72 0 31 1
60 4 65 10 15 -19 66 -38 69 -11 1 -30 5 -42 8 -54 14 -70 18 -103 26 -19 5
-52 13 -72 18 -21 6 -38 7 -38 4 0 -3 -5 -1 -12 6 -7 7 -24 12 -38 12 -15 0
-30 3 -34 7 -3 4 -17 8 -29 10 -34 6 -51 9 -67 16 -14 5 -51 14 -95 22 -11 2
-21 4 -22 5 -2 2 -7 4 -13 5 -5 1 -11 3 -12 5 -2 1 -19 4 -38 7 -19 2 -39 9
-44 14 -6 5 -25 9 -42 9 -18 0 -35 4 -39 10 -3 5 -12 7 -20 3 -8 -3 -15 -1
-15 5 0 6 -8 8 -18 5 -40 -10 -44 13 -46 309 -2 156 -6 297 -10 313 -13 53
-52 129 -90 172 -37 42 -150 108 -167 97 -5 -3 -9 -1 -9 3 0 5 -12 10 -27 11
-59 6 -94 7 -99 3z m144 -196 c51 -32 82 -83 87 -140 2 -16 4 -30 5 -30 1 0 3
-17 4 -37 1 -21 -1 -38 -5 -38 -3 0 -6 -7 -6 -15 0 -8 3 -15 6 -15 3 0 6 -31
6 -69 0 -39 -4 -67 -9 -63 -5 3 -6 0 -2 -6 9 -15 15 -72 6 -72 -4 0 -7 -7 -7
-15 0 -8 3 -15 6 -15 3 0 6 -31 6 -69 0 -39 -4 -67 -9 -63 -5 3 -6 0 -2 -6 10
-16 14 -72 6 -72 -4 0 -5 -15 -1 -32 4 -18 6 -43 5 -54 -1 -19 10 -24 95 -44
53 -13 103 -25 111 -28 8 -3 22 -7 30 -8 8 -2 69 -17 135 -34 66 -18 128 -33
138 -36 10 -2 27 -6 37 -9 10 -3 28 -8 41 -10 12 -2 47 -12 78 -21 31 -9 65
-17 76 -16 10 1 24 -3 30 -7 5 -5 29 -12 53 -16 23 -4 42 -12 43 -18 0 -7 1
-241 2 -520 2 -416 0 -511 -11 -520 -16 -13 -282 -17 -282 -4 0 5 -5 5 -12 1
-17 -11 -148 -11 -148 0 0 5 -5 5 -12 0 -7 -5 -49 -8 -93 -7 -44 2 -89 2 -100
2 -19 -1 -137 0 -160 1 -5 0 -21 -1 -35 -3 -14 -2 -35 0 -47 5 -13 4 -23 4
-23 0 0 -4 -74 -7 -165 -7 -91 0 -165 4 -165 8 0 5 -5 5 -12 1 -6 -4 -36 -8
-65 -8 -61 -1 -67 3 -105 79 -13 28 -40 79 -58 115 -19 36 -34 67 -35 70 0 3
-33 71 -73 152 -53 107 -71 151 -65 163 16 27 226 236 232 230 3 -4 6 -52 7
-108 1 -56 3 -107 3 -113 1 -11 145 -13 156 -3 2 3 5 322 5 708 1 758 -2 726
52 784 61 64 172 79 246 32z m1070 -2279 c9 -10 10 -557 1 -577 -7 -14 -90
-16 -846 -15 l-838 1 -1 280 c-1 154 0 289 3 300 4 20 12 20 839 19 459 0 838
-4 842 -8z"/>
<path d="M1320 2955 c-19 -14 -30 -25 -25 -25 6 0 5 -4 -2 -8 -7 -4 -14 -21
-17 -37 -3 -17 -8 -40 -10 -52 -5 -21 4 -28 28 -24 5 1 5 -4 -1 -11 -12 -16
-8 -51 7 -56 5 -2 8 -8 5 -13 -4 -5 1 -6 9 -3 9 3 16 1 16 -4 0 -20 40 -24 66
-7 13 9 30 13 36 9 7 -4 8 -3 4 5 -4 6 -2 18 4 26 7 8 10 24 7 35 -3 11 -2 18
3 15 13 -8 21 44 10 65 -5 10 -11 30 -12 44 -1 14 -4 23 -6 21 -2 -2 -20 8
-39 21 -20 13 -39 24 -42 24 -3 -1 -22 -12 -41 -25z"/>
<path d="M1948 735 c-2 -2 -19 -6 -38 -8 -19 -3 -52 -12 -72 -21 -39 -17 -98
-73 -98 -93 0 -7 -4 -13 -8 -13 -5 0 -9 -6 -10 -12 -2 -34 -9 -65 -15 -75 -4
-6 -3 -14 1 -17 5 -3 8 -17 7 -31 -2 -14 1 -25 6 -25 5 0 8 -3 8 -7 -4 -25 2
-53 11 -48 6 3 10 0 10 -8 0 -18 55 -65 98 -84 69 -29 155 -21 217 21 55 37
55 37 3 89 -47 47 -50 48 -68 32 -10 -9 -36 -18 -57 -20 -31 -2 -43 3 -65 27
-44 47 -32 114 25 142 28 13 35 13 67 0 19 -8 36 -19 38 -24 4 -12 32 -1 32
13 0 6 7 17 15 26 58 64 56 57 28 81 -26 22 -93 55 -93 45 0 -3 -8 -1 -19 4
-10 6 -20 8 -23 6z m71 -67 c12 -7 21 -18 21 -25 0 -16 -47 -28 -63 -16 -32
24 -147 -16 -147 -51 0 -8 -5 -16 -11 -18 -10 -3 -15 -67 -7 -98 1 -8 19 -31
39 -50 40 -39 80 -48 135 -30 28 9 37 9 49 -4 21 -21 20 -24 -22 -42 -42 -18
-103 -19 -143 -4 -3 1 -8 2 -12 1 -5 0 -8 4 -8 9 0 6 -5 10 -12 10 -26 0 -74
71 -69 103 0 4 -3 7 -8 7 -12 0 -6 78 8 114 12 30 61 94 61 79 0 -4 4 -3 8 3
20 31 138 39 181 12z"/>
<path d="M1249 715 c-3 -29 -4 -422 -1 -431 2 -8 41 -11 120 -9 117 1 165 9
190 29 81 65 105 111 107 204 0 34 -2 62 -5 62 -3 0 -12 15 -19 33 -8 17 -20
37 -25 42 -20 19 -85 67 -90 66 -3 -1 -7 -1 -8 0 -48 14 -268 18 -269 4z m269
-55 c49 -26 64 -39 83 -75 20 -37 31 -103 19 -110 -5 -3 -7 -12 -4 -20 9 -22
-51 -105 -76 -105 -5 0 -10 -4 -10 -9 0 -13 -72 -24 -162 -25 l-76 -1 -1 182
0 183 95 0 c75 0 102 -4 132 -20z"/>
<path d="M1407 633 c-4 -6 -19 -9 -35 -8 l-28 2 0 -129 c0 -79 4 -128 11 -129
78 -9 185 18 185 46 0 7 6 15 12 17 8 3 13 27 14 62 2 53 0 59 -32 91 -32 32
-43 37 -91 39 -10 1 -21 5 -24 10 -4 4 -9 4 -12 -1z m70 -57 c31 -10 53 -50
49 -88 -2 -18 -9 -34 -15 -36 -6 -2 -9 -8 -5 -13 3 -5 -2 -9 -10 -9 -9 0 -16
-4 -16 -8 0 -5 -21 -8 -47 -8 l-47 1 -1 70 c-1 98 1 103 38 101 18 -2 42 -6
54 -10z"/>
</g>
</svg>
