<?xml version="1.0" standalone="no"?>
<!DOCTYPE svg PUBLIC "-//W3C//DTD SVG 20010904//EN"
 "http://www.w3.org/TR/2001/REC-SVG-20010904/DTD/svg10.dtd">
<svg version="1.0" xmlns="http://www.w3.org/2000/svg"
 width="1024.000000pt" height="1024.000000pt" viewBox="0 0 1024.000000 1024.000000"
 preserveAspectRatio="xMidYMid meet">
<metadata>
Created by potrace 1.14, written by Peter Selinger 2001-2017
</metadata>
<g transform="translate(0.000000,1024.000000) scale(0.100000,-0.100000)"
fill="#000000" stroke="none">
<path d="M6616 9278 c-3 -13 -6 -588 -6 -1279 0 -1251 0 -1256 -21 -1282 -11
-15 -64 -51 -117 -80 -148 -83 -731 -378 -872 -442 -69 -32 -185 -86 -259
-121 -73 -35 -135 -64 -137 -64 -2 0 -29 -11 -59 -26 -54 -24 -83 -25 -110 -4
-6 5 -33 17 -60 28 -28 11 -111 49 -185 84 -74 36 -173 82 -220 104 -154 71
-498 247 -816 418 -128 68 -164 92 -172 114 -11 28 -21 987 -22 2014 l0 537
-22 6 c-24 8 -168 -60 -253 -120 -104 -72 -213 -143 -285 -185 -109 -63 -239
-147 -465 -299 -492 -332 -404 -270 -715 -503 -276 -207 -346 -263 -374 -301
-21 -28 -21 -34 -17 -650 1 -342 7 -629 11 -638 5 -8 11 -548 13 -1200 3
-1005 6 -1206 20 -1332 9 -81 21 -164 26 -185 5 -20 12 -64 16 -97 31 -280
203 -737 405 -1074 77 -129 248 -363 365 -499 84 -98 104 -127 100 -145 -7
-26 16 -52 69 -76 19 -9 109 -85 200 -170 91 -85 177 -162 190 -170 13 -9 45
-38 72 -64 84 -84 444 -366 706 -556 52 -38 88 -70 88 -81 0 -9 8 -24 18 -32
19 -18 379 -259 482 -324 36 -23 128 -81 205 -129 77 -48 158 -100 180 -115
63 -43 335 -205 403 -239 34 -17 70 -31 80 -31 10 0 43 17 73 38 30 21 81 54
114 72 117 65 733 455 930 588 110 74 214 149 230 167 17 18 115 95 220 171
191 140 426 324 590 464 50 43 104 84 120 93 69 35 482 457 539 550 11 18 70
100 132 182 61 83 137 191 169 240 32 50 69 107 84 129 57 85 84 132 92 161 4
17 32 84 62 150 61 135 135 348 165 475 12 47 31 126 43 175 23 98 29 145 53
460 14 181 17 453 19 1955 l2 1744 -60 49 c-128 104 -569 430 -755 558 -304
209 -761 504 -963 623 -18 10 -48 33 -69 51 -28 26 -224 135 -242 135 -2 0 -6
-10 -10 -22z m326 -1017 c2 -4 66 -49 143 -99 414 -269 876 -597 900 -640 7
-12 8 -364 5 -1028 l-5 -1009 -23 -1 c-30 -2 -58 35 -120 161 -100 203 -163
385 -216 625 -56 257 -76 462 -85 863 l-6 289 -30 24 c-16 13 -79 59 -140 101
-60 42 -117 84 -125 93 -8 10 -77 59 -153 110 -107 71 -143 91 -161 86 l-23
-6 -2 220 c-2 213 -2 220 18 220 10 0 21 -4 23 -9z m-3702 -216 c0 -144 -3
-215 -11 -215 -5 0 -40 -18 -76 -40 -37 -22 -76 -40 -88 -40 -13 0 -26 -9 -33
-24 -5 -13 -74 -66 -154 -119 -78 -53 -165 -113 -193 -134 l-50 -39 -2 -89
c-15 -623 -60 -994 -158 -1307 -94 -297 -262 -625 -301 -585 -7 6 -5 2057 2
2068 11 18 263 209 394 299 74 51 234 158 355 237 121 80 238 158 260 173 22
16 43 29 48 29 4 1 7 -96 7 -214z m3694 -1527 c3 -18 7 -85 10 -148 21 -483
147 -1137 304 -1580 142 -399 371 -810 572 -1025 70 -74 72 -82 51 -156 -28
-97 -66 -190 -142 -344 -75 -152 -274 -458 -301 -463 -25 -5 -100 116 -226
368 -168 335 -225 470 -330 791 -92 281 -94 285 -181 664 -5 22 -23 123 -39
225 -57 356 -72 552 -80 1083 l-7 418 95 53 c52 30 118 66 145 82 28 15 64 36
80 46 40 24 43 23 49 -14z m-3587 -84 c54 -25 126 -59 160 -75 35 -16 67 -38
73 -49 21 -40 6 -820 -21 -1080 -34 -332 -86 -613 -170 -930 -49 -183 -161
-524 -214 -650 -127 -304 -353 -755 -413 -822 -28 -33 -47 -20 -119 80 -97
136 -144 215 -224 379 -58 118 -149 358 -149 393 0 5 24 37 53 71 116 137 243
317 311 439 112 201 239 483 297 660 82 253 164 581 199 795 42 258 72 508 85
710 7 99 12 125 25 125 5 0 53 -21 107 -46z m3100 -170 c-3 -3 -12 -4 -19 -1
-8 3 -5 6 6 6 11 1 17 -2 13 -5z m-1981 -357 l229 -108 -2 -337 c-11 -1827
-89 -2913 -274 -3827 -39 -191 -51 -235 -66 -235 -44 0 -716 489 -744 541 -7
13 -2 34 17 76 49 111 172 429 217 563 263 779 377 1685 377 3005 0 251 4 435
9 433 5 -1 112 -52 237 -111z m1468 -192 c3 -159 8 -405 11 -545 9 -409 37
-922 66 -1160 50 -428 86 -630 176 -1000 72 -299 205 -686 328 -956 54 -119
74 -91 -205 -304 -82 -64 -346 -253 -442 -318 -26 -18 -53 -32 -61 -32 -41 0
-170 710 -222 1225 -8 83 -17 170 -20 195 -3 25 -10 104 -15 175 -5 72 -16
220 -24 330 -14 192 -29 541 -45 1050 -5 132 -9 507 -10 833 l-1 592 22 9 c13
5 59 26 103 46 296 138 330 153 331 152 1 -1 5 -132 8 -292z"/>
<path d="M5065 8974 c-8 -16 -60 -119 -113 -229 -187 -381 -186 -378 -223
-397 -19 -9 -72 -22 -119 -28 -47 -5 -128 -17 -180 -25 -52 -8 -147 -21 -210
-30 -138 -19 -190 -32 -190 -47 0 -11 22 -34 332 -334 86 -83 161 -160 166
-171 8 -14 8 -44 2 -94 -10 -84 -97 -594 -106 -621 -12 -39 41 -16 392 170
138 72 261 132 273 132 13 0 60 -20 104 -44 210 -113 530 -276 543 -276 8 0
14 3 14 6 0 16 -82 504 -95 566 -8 38 -15 90 -15 116 l0 47 250 245 c138 135
250 251 250 257 0 7 -10 15 -22 17 -86 18 -154 29 -374 61 -288 42 -293 42
-318 64 -10 9 -86 151 -168 316 -82 165 -155 306 -163 314 -12 12 -16 10 -30
-15z"/>
</g>
</svg>
